P2
8 8
255
0 0 0 0 0 0 0 0 
0 0 64 64 64 64 0 0 
0 64 64 128 128 64 64 0 
0 64 128 192 192 128 64 0 
0 64 128 192 192 128 64 0 
0 64 64 128 128 64 64 0 
0 0 64 64 64 64 0 0 
0 0 0 0 0 0 0 0 
